<svg height="409pt" viewBox="-47 0 409 409.6" width="409pt" xmlns="http://www.w3.org/2000/svg">
  <path d="m157.3125 409.601562c-93.910156 0-157.011719-71.328124-157.011719-177.496093 0-110.628907 82.175781-232.105469 157.011719-232.105469 74.839844 0 157.015625 121.476562 157.015625 232.105469 0 106.167969-63.101563 177.496093-157.015625 177.496093zm0-395.949218c-61.269531 0-143.359375 108.003906-143.359375 218.453125 0 98 57.613281 163.839843 143.359375 163.839843s143.359375-65.839843 143.359375-163.839843c0-110.449219-82.089844-218.453125-143.359375-218.453125zm0 0"/>
  <path d="m157.3125 252.585938c-16.34375 0-31.34375-5.761719-40.117188-15.414063-2.53125-2.792969-2.324218-7.109375.464844-9.644531 2.796875-2.535156 7.117188-2.324219 9.640625.460937 6.136719 6.75 17.636719 10.945313 30.011719 10.945313 12.238281 0 23.675781-4.125 29.84375-10.765625 2.566406-2.761719 6.894531-2.917969 9.644531-.355469 2.765625 2.566406 2.921875 6.886719.355469 9.648438-8.800781 9.472656-23.691406 15.125-39.84375 15.125zm0 0"/>
  <path d="m109.527344 191.148438c0 7.539062-6.113282 13.652343-13.652344 13.652343-7.542969 0-13.65625-6.113281-13.65625-13.652343 0-7.542969 6.113281-13.65625 13.65625-13.65625 7.539062 0 13.652344 6.113281 13.652344 13.65625zm0 0"/>
  <path d="m232.40625 191.148438c0 7.539062-6.113281 13.652343-13.652344 13.652343-7.542968 0-13.652344-6.113281-13.652344-13.652343 0-7.542969 6.109376-13.65625 13.652344-13.65625 7.539063 0 13.652344 6.113281 13.652344 13.65625zm0 0"/>
</svg>
