<?xml version="1.0" ?>
  <svg id="Layer_1" style="enable-background:new 0 0 100 100;" version="1.1" viewBox="0 0 100 100" xml:space="preserve" xmlns="http://www.w3.org/2000/svg" xmlns:xlink="http://www.w3.org/1999/xlink">
    <style type="text/css">
      .st0{fill:black;}
    </style>
    <g>
      <g>
        <path class="st0" d="M50,92.5c-11.6,0-20.2-4.1-25.6-12.2c-9-13.7-6.3-36,0.1-51C33.6,7.7,49.3,7.5,50,7.5s16.4,0.2,25.5,21.8    c6.4,15,9.1,37.4,0.1,51C70.2,88.4,61.6,92.5,50,92.5z M50,11.2c-0.5,0-14,0.4-22.1,19.5c-6,14.1-8.7,35-0.4,47.5    c4.6,7,12.2,10.6,22.5,10.6s17.9-3.6,22.5-10.6c8.3-12.5,5.6-33.4-0.4-47.5l0,0C64,11.6,50.6,11.2,50,11.2z"/>
      </g>
      <g>
        <circle class="st0" cx="58.6" cy="44.2" r="3.4"/>
      </g>
      <g>
        <circle class="st0" cx="41.4" cy="44.2" r="3.4"/>
      </g>
      <g>
        <path class="st0" d="M58.6,53.4c0,0-2.9,5.8-8.6,5.8c-5.7,0-8.6-5.8-8.6-5.8"/>
      </g>
    </g>
  </svg>
